<?xml version="1.0" encoding="UTF-8" standalone="no"?>
<!-- Generator: Adobe Illustrator 19.0.0, SVG Export Plug-In . SVG Version: 6.00 Build 0)  -->

<svg
   version="1.1"
   id="Capa_1"
   x="0px"
   y="0px"
   viewBox="0 0 512 512"
   style="enable-background:new 0 0 512 512;"
   xml:space="preserve"
   sodipodi:docname="simon_says.svg"
   inkscape:version="1.1 (c68e22c387, 2021-05-23)"
   xmlns:inkscape="http://www.inkscape.org/namespaces/inkscape"
   xmlns:sodipodi="http://sodipodi.sourceforge.net/DTD/sodipodi-0.dtd"
   xmlns="http://www.w3.org/2000/svg"
   xmlns:svg="http://www.w3.org/2000/svg"><defs
   id="defs55" /><sodipodi:namedview
   id="namedview53"
   pagecolor="#505050"
   bordercolor="#ffffff"
   borderopacity="1"
   inkscape:pageshadow="0"
   inkscape:pageopacity="0"
   inkscape:pagecheckerboard="1"
   showgrid="false"
   inkscape:zoom="0.47265625"
   inkscape:cx="539.50413"
   inkscape:cy="195.70248"
   inkscape:window-width="1366"
   inkscape:window-height="697"
   inkscape:window-x="-8"
   inkscape:window-y="-8"
   inkscape:window-maximized="1"
   inkscape:current-layer="Capa_1" />
<path
   style="fill:#42516d;fill-opacity:1"
   d="M256,0C115.3,0,0,115.3,0,256s115.3,256,256,256s256-115.3,256-256S396.7,0,256,0z"
   id="path2" />
<path
   style="fill:#42516D;"
   d="M512,256c0,140.7-115.3,256-256,256V0C396.7,0,512,115.3,512,256z"
   id="path4" />
<path
   style="fill:#25b987"
   d="M 433.495,265 H 340.858 L 265,340.858 v 92.637 c 0,9.023 7.988,16.295 17.49,14.795 81.812,-13.77 152.03,-83.988 165.8,-165.8 1.538,-9.137 -5.53116,-17.69 -14.795,-17.49 z"
   id="path6"
   sodipodi:nodetypes="sccsccs" />
<path
   style="fill:#d94158"
   d="m 78.505,265 c -9.265,0 -16.333,8.353 -14.795,17.49 13.77,81.812 83.988,152.03 165.8,165.8 9.553,1.509 17.68338,-5.83809 17.49,-14.795 V 340.858 L 171.142,265 Z"
   id="path8"
   sodipodi:nodetypes="sccsccs" />
<path
   style="fill:#ffcd33"
   d="M 229.51,63.71 C 147.698,77.48 77.48,147.698 63.71,229.51 62.172,238.647 69.24,247 78.505,247 h 92.637 L 247,171.142 V 78.505 c 0,-9.066 -8.067,-16.281 -17.49,-14.795 z"
   id="path10"
   sodipodi:nodetypes="ccsccsc" />
<path
   style="fill:#4596e6"
   d="m 433.495,247 c 9.265,0 16.333,-8.353 14.795,-17.49 C 434.52,147.698 364.302,77.48 282.49,63.71 273.212,62.19 264.80216,69.341135 265,78.505 v 92.637 L 340.858,247 Z"
   id="path12"
   sodipodi:nodetypes="sccsccs" />
<path
   style="fill:#d1d7e3;fill-opacity:1"
   d="M359.801,241c-7.202-50.7-51-90-103.801-90s-96.599,39.3-103.801,90  c-0.899,4.799-1.199,9.899-1.199,15c0,5.099,0.3,10.199,1.199,15c7.202,50.7,51,90,103.801,90s96.599-39.3,103.801-90  c0.899-4.801,1.199-9.901,1.199-15C361,250.899,360.7,245.799,359.801,241z"
   id="path14" />
<path
   style="fill:#D1D7E3;"
   d="M361,256c0,5.099-0.3,10.199-1.199,15c-7.202,50.7-51,90-103.801,90V151  c52.8,0,96.599,39.3,103.801,90C360.7,245.799,361,250.899,361,256z"
   id="path16" />


<g
   id="g22">
</g>
<g
   id="g24">
</g>
<g
   id="g26">
</g>
<g
   id="g28">
</g>
<g
   id="g30">
</g>
<g
   id="g32">
</g>
<g
   id="g34">
</g>
<g
   id="g36">
</g>
<g
   id="g38">
</g>
<g
   id="g40">
</g>
<g
   id="g42">
</g>
<g
   id="g44">
</g>
<g
   id="g46">
</g>
<g
   id="g48">
</g>
<g
   id="g50">
</g>
</svg>
